<svg width="25" height="24" viewBox="0 0 25 24" fill="none" xmlns="http://www.w3.org/2000/svg">
<g id="Icons/cancel_24px">
<path id="icon" fill-rule="evenodd" clip-rule="evenodd" d="M12.25 2C6.72 2 2.25 6.47 2.25 12C2.25 17.53 6.72 22 12.25 22C17.78 22 22.25 17.53 22.25 12C22.25 6.47 17.78 2 12.25 2ZM12.25 20C7.84 20 4.25 16.41 4.25 12C4.25 7.59 7.84 4 12.25 4C16.66 4 20.25 7.59 20.25 12C20.25 16.41 16.66 20 12.25 20ZM12.25 10.59L15.84 7L17.25 8.41L13.66 12L17.25 15.59L15.84 17L12.25 13.41L8.66 17L7.25 15.59L10.84 12L7.25 8.41L8.66 7L12.25 10.59Z" fill="#48627F"/>
</g>
</svg>
