<svg width="25" height="24" viewBox="0 0 25 24" fill="none" xmlns="http://www.w3.org/2000/svg">
<g id="Check circle" clip-path="url(#clip0_6992_66006)">
<path id="Vector" d="M12.875 2C7.355 2 2.875 6.48 2.875 12C2.875 17.52 7.355 22 12.875 22C18.395 22 22.875 17.52 22.875 12C22.875 6.48 18.395 2 12.875 2ZM12.875 20C8.465 20 4.875 16.41 4.875 12C4.875 7.59 8.465 4 12.875 4C17.285 4 20.875 7.59 20.875 12C20.875 16.41 17.285 20 12.875 20ZM17.465 7.58L10.875 14.17L8.285 11.59L6.875 13L10.875 17L18.875 9L17.465 7.58Z" fill="#859AB5"/>
</g>
<defs>
<clipPath id="clip0_6992_66006">
<rect width="24" height="24" fill="white" transform="translate(0.875)"/>
</clipPath>
</defs>
</svg>
