<svg width="27" height="26" viewBox="0 0 27 26" xmlns="http://www.w3.org/2000/svg">
<path fill-rule="evenodd" clip-rule="evenodd" d="M3.54443 13C3.54443 7.48 8.01443 3 13.5344 3C19.0644 3 23.5444 7.48 23.5444 13C23.5444 18.52 19.0644 23 13.5344 23C8.01443 23 3.54443 18.52 3.54443 13ZM17.5144 9H20.4644C19.5044 7.35 17.9744 6.07 16.1344 5.44C16.7344 6.55 17.1944 7.75 17.5144 9ZM13.5444 5.04C14.3744 6.24 15.0244 7.57 15.4544 9H11.6344C12.0644 7.57 12.7144 6.24 13.5444 5.04ZM5.54443 13C5.54443 13.69 5.64443 14.36 5.80443 15H9.18443C9.10443 14.34 9.04443 13.68 9.04443 13C9.04443 12.32 9.10443 11.66 9.18443 11H5.80443C5.64443 11.64 5.54443 12.31 5.54443 13ZM6.62443 17H9.57443C9.89443 18.25 10.3544 19.45 10.9544 20.56C9.11443 19.93 7.58443 18.66 6.62443 17ZM6.62443 9H9.57443C9.89443 7.75 10.3544 6.55 10.9544 5.44C9.11443 6.07 7.58443 7.34 6.62443 9ZM13.5444 20.96C12.7144 19.76 12.0644 18.43 11.6344 17H15.4544C15.0244 18.43 14.3744 19.76 13.5444 20.96ZM11.0444 13C11.0444 13.68 11.1144 14.34 11.2044 15H15.8844C15.9744 14.34 16.0444 13.68 16.0444 13C16.0444 12.32 15.9744 11.65 15.8844 11H11.2044C11.1144 11.65 11.0444 12.32 11.0444 13ZM16.1344 20.56C16.7344 19.45 17.1944 18.25 17.5144 17H20.4644C19.5044 18.65 17.9744 19.93 16.1344 20.56ZM18.0444 13C18.0444 13.68 17.9844 14.34 17.9044 15H21.2844C21.4444 14.36 21.5444 13.69 21.5444 13C21.5444 12.31 21.4444 11.64 21.2844 11H17.9044C17.9844 11.66 18.0444 12.32 18.0444 13Z" />
</svg>
