<svg width="21" height="22" viewBox="0 0 21 22" fill="none" xmlns="http://www.w3.org/2000/svg">
<path id="Union" fill-rule="evenodd" clip-rule="evenodd" d="M13.986 7.35162C17.7798 7.35365 19.6767 7.36408 19.6767 7.37349C19.0657 9.7444 16.9157 11.4332 14.4257 11.4324C12.4676 11.433 10.6934 10.387 9.73056 8.72414L9.65372 8.5908L0.763881 8.59339C0.569327 8.59345 0.409338 8.43346 0.409395 8.23891L0.410688 3.80183C0.410744 3.60728 0.570827 3.4472 0.765381 3.44714L9.65992 3.44612L9.73684 3.31273C10.2137 2.48975 10.8986 1.80649 11.7226 1.3315C12.5467 0.856498 13.4811 0.606455 14.432 0.606446C16.9204 0.605721 19.0694 2.29332 19.6634 4.68584L13.9868 4.68749L13.986 7.35162ZM19.2837 15.8271C19.7863 14.6138 20.0449 13.3135 20.0449 12.0002H10.0449H0.0449219C0.0449219 13.3135 0.303579 14.6138 0.806126 15.8271C1.30867 17.0403 2.04527 18.1427 2.97385 19.0713C3.90244 19.9999 5.00483 20.7365 6.21809 21.239C7.43134 21.7416 8.7317 22.0002 10.0449 22.0002C11.3581 22.0002 12.6585 21.7416 13.8718 21.239C15.085 20.7365 16.1874 19.9999 17.116 19.0713C18.0446 18.1427 18.7812 17.0403 19.2837 15.8271Z" fill="#48627F"/>
</svg>
