<svg width="21" height="22" viewBox="0 0 21 22" fill="none" xmlns="http://www.w3.org/2000/svg">
<path id="Union" fill-rule="evenodd" clip-rule="evenodd" d="M13.9821 6.74493C17.7759 6.74696 19.6728 6.75739 19.6728 6.7668C19.0618 9.13771 16.9118 10.8266 14.4218 10.8257C12.4637 10.8263 10.6895 9.78029 9.72665 8.11745L9.64981 7.98411L0.759975 7.9867C0.565422 7.98676 0.405433 7.82677 0.40549 7.63222L0.406782 3.19514C0.406839 3.00059 0.566922 2.84051 0.761475 2.84045L9.65602 2.83943L9.73293 2.70605C10.2098 1.88306 10.8947 1.19981 11.7187 0.724807C12.5428 0.24981 13.4772 -0.000232819 14.4281 -0.000242609C16.9165 -0.000967458 19.0655 1.68663 19.6595 4.07915L13.9829 4.0808L13.9821 6.74493ZM10.0349 21.3936C4.51492 21.3936 0.0449219 16.9136 0.0449219 11.3936H2.04492C2.04492 12.0836 2.14492 12.7536 2.30492 13.3936H5.68492C5.60492 12.7336 5.54492 12.0736 5.54492 11.3936H7.54492C7.54492 12.0736 7.61492 12.7336 7.70492 13.3936H12.3849C12.4749 12.7336 12.5449 12.0736 12.5449 11.3936H14.5449C14.5449 12.0736 14.4849 12.7336 14.4049 13.3936H17.7849C17.9449 12.7536 18.0449 12.0836 18.0449 11.3936H20.0449C20.0449 16.9136 15.5649 21.3936 10.0349 21.3936ZM3.12492 15.3936H6.07492C6.39492 16.6436 6.85492 17.8436 7.45492 18.9536C5.61492 18.3236 4.08492 17.0536 3.12492 15.3936ZM10.0449 19.3536C9.21492 18.1536 8.56492 16.8236 8.13492 15.3936H11.9549C11.5249 16.8236 10.8749 18.1536 10.0449 19.3536ZM12.6349 18.9536C13.2349 17.8436 13.6949 16.6436 14.0149 15.3936H16.9649C16.0049 17.0436 14.4749 18.3236 12.6349 18.9536Z" fill="#48627F"/>
</svg>
