<svg width="25" height="24" viewBox="0 0 25 24" fill="none" xmlns="http://www.w3.org/2000/svg">
<g id="notifications">
<path id="Vector" d="M17.55 16V16.2899L17.755 16.495L19.55 18.29V18.3H4.95V18.2899L6.74497 16.495L6.95 16.2899V16V11C6.95 8.16412 8.42906 5.94929 10.9114 5.36114L11.45 5.23353V4.68V4C11.45 3.5566 11.8066 3.2 12.25 3.2C12.6934 3.2 13.05 3.5566 13.05 4V4.68V5.23308L13.5881 5.36102C16.0614 5.94907 17.55 8.17474 17.55 11V16ZM13.3432 20.7C13.111 21.0599 12.7065 21.3 12.25 21.3C11.7882 21.3 11.3847 21.0603 11.1542 20.7H13.3432Z" stroke="#859AB5" stroke-width="1.4"/>
</g>
</svg>
