<svg width="25" height="24" viewBox="0 0 25 24" fill="none" xmlns="http://www.w3.org/2000/svg">
<path fill-rule="evenodd" clip-rule="evenodd" d="M3.20068 12C3.20068 7.032 7.22368 3 12.1917 3C17.1687 3 21.2007 7.032 21.2007 12C21.2007 16.968 17.1687 21 12.1917 21C7.22368 21 3.20068 16.968 3.20068 12ZM15.7737 8.4H18.4287C17.5647 6.915 16.1877 5.763 14.5317 5.196C15.0717 6.195 15.4857 7.275 15.7737 8.4ZM12.2007 4.836C12.9477 5.916 13.5327 7.113 13.9197 8.4H10.4817C10.8687 7.113 11.4537 5.916 12.2007 4.836ZM5.00068 12C5.00068 12.621 5.09068 13.224 5.23468 13.8H8.27668C8.20468 13.206 8.15068 12.612 8.15068 12C8.15068 11.388 8.20468 10.794 8.27668 10.2H5.23468C5.09068 10.776 5.00068 11.379 5.00068 12ZM5.97268 15.6H8.62768C8.91568 16.725 9.32968 17.805 9.86968 18.804C8.21368 18.237 6.83668 17.094 5.97268 15.6ZM5.97268 8.4H8.62768C8.91568 7.275 9.32968 6.195 9.86968 5.196C8.21368 5.763 6.83668 6.906 5.97268 8.4ZM12.2007 19.164C11.4537 18.084 10.8687 16.887 10.4817 15.6H13.9197C13.5327 16.887 12.9477 18.084 12.2007 19.164ZM9.95068 12C9.95068 12.612 10.0137 13.206 10.0947 13.8H14.3067C14.3877 13.206 14.4507 12.612 14.4507 12C14.4507 11.388 14.3877 10.785 14.3067 10.2H10.0947C10.0137 10.785 9.95068 11.388 9.95068 12ZM14.5317 18.804C15.0717 17.805 15.4857 16.725 15.7737 15.6H18.4287C17.5647 17.085 16.1877 18.237 14.5317 18.804ZM16.2507 12C16.2507 12.612 16.1967 13.206 16.1247 13.8H19.1667C19.3107 13.224 19.4007 12.621 19.4007 12C19.4007 11.379 19.3107 10.776 19.1667 10.2H16.1247C16.1967 10.794 16.2507 11.388 16.2507 12Z" fill="#48627F"/>
</svg>
