<svg width="24" height="24" viewBox="0 0 24 24" fill="none" xmlns="http://www.w3.org/2000/svg">
<path fill-rule="evenodd" clip-rule="evenodd" d="M9 6C9 4.34314 10.3433 3 12 3C13.6567 3 15 4.34314 15 6V11.9997C16.2144 12.9119 17 14.3642 17 16C17 18.7614 14.7612 21 12 21C9.23877 21 7 18.7614 7 16C7 14.3642 7.78564 12.9119 9 11.9997V9H8.47959C8.22874 9 8.02539 8.77614 8.02539 8.5C8.02539 8.22386 8.22874 8 8.47959 8H9V7.00879H7.50243C7.22495 7.00879 7 6.78493 7 6.50879C7 6.23265 7.22495 6.00879 7.50243 6.00879L9 6.00879V6ZM10.9849 9H11.8905C12.1414 9 12.3447 8.77614 12.3447 8.5C12.3447 8.22386 12.1414 8 11.8905 8H10.9849V7.00879H11.8423C12.1198 7.00879 12.3447 6.78493 12.3447 6.50879C12.3447 6.23265 12.1198 6.00879 11.8423 6.00879H10.9849C10.9908 5.45318 11.4431 5.00464 12 5.00464C12.5605 5.00464 13.0151 5.45911 13.0151 6.01978V11.1031C12.6875 11.0355 12.3477 11 12 11C11.6523 11 11.3125 11.0355 10.9849 11.1031V9Z" fill="#48627F"/>
</svg>
