<svg  viewBox="0 0 33 33" fill="none" xmlns="http://www.w3.org/2000/svg">
<g id="User images/User Images">
<rect x="0.75" y="0.5" width="32" height="32" rx="16" fill="#2A3D53"/>
<g id="Avatar Placeholder">
<path fill-rule="evenodd" clip-rule="evenodd" d="M21.5502 13.3C21.5502 15.951 19.4012 18.1 16.7502 18.1C14.0992 18.1 11.9502 15.951 11.9502 13.3C11.9502 10.649 14.0992 8.5 16.7502 8.5C19.4012 8.5 21.5502 10.649 21.5502 13.3ZM19.9502 13.3C19.9502 15.0673 18.5175 16.5 16.7502 16.5C14.9829 16.5 13.5502 15.0673 13.5502 13.3C13.5502 11.5327 14.9829 10.1 16.7502 10.1C18.5175 10.1 19.9502 11.5327 19.9502 13.3Z" fill="#859AB5"/>
<path d="M16.7502 20.5C11.5707 20.5 7.15761 23.5627 5.47656 27.8536C5.88608 28.2603 6.31747 28.6449 6.76883 29.0056C8.02062 25.0662 11.9476 22.1 16.7502 22.1C21.5528 22.1 25.4798 25.0662 26.7316 29.0057C27.1829 28.6449 27.6143 28.2603 28.0238 27.8536C26.3428 23.5627 21.9297 20.5 16.7502 20.5Z" fill="#859AB5"/>
</g>
</g>
</svg>
