<svg width="24" height="24" viewBox="0 0 24 24" fill="none" xmlns="http://www.w3.org/2000/svg">
<path d="M8.24893 3H3.53667C3.16096 3 2.85742 3.30354 2.85742 3.67925V8.43396C2.85742 8.62075 3.01025 8.77358 3.19704 8.77358H4.51508C4.70187 8.77358 4.8547 8.62075 4.8547 8.43396V4.99918L8.24893 5.03774C8.43572 5.03774 8.58855 4.88491 8.58855 4.69811V3.33962C8.58855 3.15283 8.43572 3 8.24893 3ZM20.5178 15.2264H19.1985C19.0117 15.2264 18.8589 15.3792 18.8589 15.566V19.0206H15.4659C15.2791 19.0206 15.1263 19.1734 15.1263 19.3602V20.6604C15.1263 20.8472 15.2791 21 15.4659 21H20.1782C20.5539 21 20.8574 20.6965 20.8574 20.3208V15.566C20.8574 15.3792 20.7046 15.2264 20.5178 15.2264ZM8.24893 18.9995H4.84549V15.566C4.84549 15.3792 4.69266 15.2264 4.50587 15.2264H3.19704C3.01025 15.2264 2.85742 15.3792 2.85742 15.566V20.3208C2.85742 20.6965 3.16096 21 3.53667 21H8.24893C8.43572 21 8.58855 20.8472 8.58855 20.6604V19.3391C8.58855 19.1523 8.43572 18.9995 8.24893 18.9995ZM20.1782 3H15.4659C15.2791 3 15.1263 3.15283 15.1263 3.33962V4.69811C15.1263 4.88491 15.2791 5.03774 15.4659 5.03774H18.8197V8.43396C18.8197 8.62075 18.9725 8.77358 19.1593 8.77358H20.5178C20.7046 8.77358 20.8574 8.62075 20.8574 8.43396V3.67925C20.8574 3.30354 20.5539 3 20.1782 3Z" fill="#48627F"/>
<path d="M18.7256 11.5858C17.2035 8.37937 14.9027 6.76575 11.8184 6.76575C8.7324 6.76575 6.43318 8.37937 4.91108 11.5874C4.85002 11.7166 4.81836 11.8578 4.81836 12.0008C4.81836 12.1438 4.85002 12.285 4.91108 12.4142C6.43318 15.6206 8.734 17.2342 11.8184 17.2342C14.9043 17.2342 17.2035 15.6206 18.7256 12.4126C18.8493 12.1525 18.8493 11.8507 18.7256 11.5858ZM11.8184 16.0782C9.22853 16.0782 7.33232 14.7648 5.99485 12C7.33232 9.23516 9.22853 7.92178 11.8184 7.92178C14.4082 7.92178 16.3044 9.23516 17.6419 12C16.306 14.7648 14.4098 16.0782 11.8184 16.0782ZM11.7541 9.17414C10.1935 9.17414 8.92828 10.4394 8.92828 12C8.92828 13.5606 10.1935 14.8258 11.7541 14.8258C13.3148 14.8258 14.58 13.5606 14.58 12C14.58 10.4394 13.3148 9.17414 11.7541 9.17414Z" fill="#48627F"/>
</svg>
